<svg width="25" height="25" viewBox="0 0 25 25" fill="none" xmlns="http://www.w3.org/2000/svg">
<g clip-path="url(#clip0_9_41)">
<path d="M12.5 0C5.59687 0 0 5.59687 0 12.5C0 19.4031 5.59687 25 12.5 25C19.4031 25 25 19.4031 25 12.5C25 5.59687 19.4031 0 12.5 0ZM20.9542 12.7729C20.8528 12.7731 20.7525 12.7532 20.6589 12.7145C20.5652 12.6759 20.4801 12.6191 20.4084 12.5475C20.3367 12.4759 20.2799 12.3909 20.2411 12.2973C20.2023 12.2037 20.1823 12.1034 20.1823 12.0021C20.1823 11.9937 20.1875 11.9854 20.1875 11.976L18.6667 10.4552C18.4145 10.2011 18.2724 9.858 18.2708 9.5V5.96979C18.2703 5.8916 18.2389 5.81678 18.1835 5.76158C18.1281 5.70639 18.0532 5.67527 17.975 5.675H17.0219C16.9436 5.675 16.8685 5.70602 16.8131 5.76128C16.7576 5.81653 16.7263 5.89151 16.726 5.96979V8.48333L12.6771 4.56562C12.6213 4.51108 12.5462 4.4808 12.4681 4.48139C12.3901 4.48197 12.3154 4.51337 12.2604 4.56875L4.62292 12.2083C4.5677 12.2636 4.53669 12.3385 4.53669 12.4167C4.53669 12.4948 4.5677 12.5697 4.62292 12.625L5.34792 13.351C5.40359 13.4055 5.47837 13.436 5.55625 13.436C5.63413 13.436 5.70891 13.4055 5.76458 13.351L11.6344 7.56771C11.8893 7.31805 12.2324 7.17893 12.5892 7.18049C12.946 7.18205 13.2879 7.32416 13.5406 7.57604L19.2958 13.3313C19.549 13.5851 19.6912 13.929 19.6912 14.2875C19.6912 14.646 19.549 14.9899 19.2958 15.2437L18.5885 15.9521C18.3362 16.2019 17.9962 16.3431 17.6411 16.3454C17.286 16.3477 16.9441 16.2111 16.6885 15.9646L12.651 12.0417C12.5952 11.987 12.52 11.9567 12.4418 11.9575C12.3637 11.9583 12.2891 11.9901 12.2344 12.0458L8.35625 15.9417C8.30154 15.9972 8.27087 16.072 8.27087 16.15C8.27087 16.228 8.30154 16.3028 8.35625 16.3583L9.07187 17.0771C9.12715 17.1323 9.20208 17.1633 9.28021 17.1633C9.35834 17.1633 9.43327 17.1323 9.48854 17.0771L11.5854 15.0083C11.839 14.7595 12.1801 14.62 12.5354 14.62C12.8907 14.62 13.2318 14.7595 13.4854 15.0083L15.5625 17.05L15.5698 17.0573C15.8235 17.311 15.9661 17.6552 15.9661 18.0141C15.9661 18.3729 15.8235 18.7171 15.5698 18.9708L13.5021 21.0375V21.051C13.5019 21.2035 13.4565 21.3524 13.3717 21.479C13.2868 21.6056 13.1664 21.7043 13.0255 21.7625C12.8846 21.8206 12.7297 21.8358 12.5802 21.8059C12.4308 21.776 12.2935 21.7025 12.1858 21.5947C12.0781 21.4868 12.0048 21.3495 11.9752 21.2C11.9455 21.0505 11.9608 20.8956 12.0192 20.7548C12.0776 20.614 12.1764 20.4937 12.3031 20.409C12.4298 20.3243 12.5788 20.2792 12.7312 20.2792C12.7406 20.2792 12.7479 20.2844 12.7573 20.2844L14.8146 18.2219C14.8422 18.1945 14.8642 18.1618 14.8792 18.1259C14.8942 18.09 14.902 18.0514 14.9021 18.0125C14.902 17.9736 14.8941 17.9352 14.8788 17.8994C14.8636 17.8636 14.8414 17.8312 14.8135 17.8042L12.7354 15.7625C12.6799 15.7078 12.605 15.6771 12.5271 15.6771C12.4491 15.6771 12.3743 15.7078 12.3187 15.7625L10.2292 17.825C9.97503 18.0757 9.63217 18.2159 9.27518 18.2151C8.91819 18.2144 8.57595 18.0727 8.32292 17.8208L7.60417 17.1031C7.35189 16.8492 7.21029 16.5058 7.21029 16.1479C7.21029 15.79 7.35189 15.4466 7.60417 15.1927L11.4792 11.2969C11.7308 11.0454 12.0711 10.9027 12.4268 10.8996C12.7825 10.8965 13.1253 11.0332 13.3812 11.2802L17.4219 15.1948C17.4774 15.2495 17.5522 15.2802 17.6302 15.2802C17.7082 15.2802 17.783 15.2495 17.8385 15.1948L18.5458 14.4875C18.6005 14.432 18.6312 14.3571 18.6312 14.2792C18.6312 14.2012 18.6005 14.1264 18.5458 14.0708L12.7917 8.31875C12.7363 8.26379 12.6614 8.23295 12.5833 8.23295C12.5053 8.23295 12.4304 8.26379 12.375 8.31875L6.50312 14.1052C6.24835 14.3548 5.90546 14.4939 5.54881 14.4923C5.19216 14.4908 4.85049 14.3487 4.59792 14.0969L3.87083 13.374L3.86875 13.3708C3.74334 13.2453 3.64391 13.0963 3.57614 12.9323C3.50836 12.7684 3.47358 12.5926 3.47377 12.4152C3.47396 12.2378 3.50913 12.0621 3.57726 11.8983C3.64539 11.7345 3.74515 11.5857 3.87083 11.4604L11.5104 3.82083C11.7622 3.57153 12.1014 3.43039 12.4557 3.42747C12.81 3.42455 13.1514 3.56009 13.4073 3.80521L15.6635 5.98958V5.96979C15.6641 5.61119 15.8069 5.26744 16.0605 5.01397C16.3142 4.76049 16.6581 4.61798 17.0167 4.61771H17.9708C18.3293 4.61826 18.6728 4.76089 18.9263 5.01433C19.1797 5.26778 19.3224 5.61137 19.3229 5.96979V9.49479C19.3229 9.5335 19.3305 9.57183 19.3454 9.60759C19.3602 9.64334 19.3819 9.67581 19.4094 9.70312L20.9375 11.2312H20.9521C21.1565 11.2311 21.3526 11.3122 21.4973 11.4567C21.642 11.6011 21.7233 11.7971 21.7234 12.0016C21.7236 12.206 21.6425 12.4021 21.498 12.5468C21.3536 12.6914 21.1576 12.7728 20.9531 12.7729H20.9542Z" fill="#DA4A4A" fill-opacity="0.58"/>
</g>
<defs>
<clipPath id="clip0_9_41">
<rect width="25" height="25" fill="white"/>
</clipPath>
</defs>
</svg>
